<?xml version="1.0" encoding="UTF-8"?>
<svg fill="none" viewBox="0 0 24 24" xmlns="http://www.w3.org/2000/svg">
<path d="M12 8V2L10 4" stroke="#292D32" stroke-linecap="round" stroke-linejoin="round" stroke-width="1.5"/>
<path d="m12 2 2 2" stroke="#292D32" stroke-linecap="round" stroke-linejoin="round" stroke-width="1.5"/>
<path d="m7 12c-4 0-4 1.79-4 4v1c0 2.76 0 5 5 5h8c4 0 5-2.24 5-5v-1c0-2.21 0-4-4-4-1 0-1.28 0.21-1.8 0.6l-1.02 1.08c-1.18 1.26-3.18 1.26-4.37 0l-1.01-1.08c-0.52-0.39-0.8-0.6-1.8-0.6z" stroke="#292D32" stroke-linecap="round" stroke-linejoin="round" stroke-miterlimit="10" stroke-width="1.5"/>
<path d="m5 12v-2c0-2.01 0-3.67 3-3.96" stroke="#292D32" stroke-linecap="round" stroke-linejoin="round" stroke-miterlimit="10" stroke-width="1.5"/>
<path d="m19 12v-2c0-2.01 0-3.67-3-3.96" stroke="#292D32" stroke-linecap="round" stroke-linejoin="round" stroke-miterlimit="10" stroke-width="1.5"/>
</svg>
