<?xml version="1.0" encoding="UTF-8"?>
<svg viewBox="0 0 24 24" xmlns="http://www.w3.org/2000/svg">
<path d="m12 12.75c-3.17 0-5.75-2.58-5.75-5.75s2.58-5.75 5.75-5.75 5.75 2.58 5.75 5.75-2.58 5.75-5.75 5.75zm0-10c-2.34 0-4.25 1.91-4.25 4.25s1.91 4.25 4.25 4.25 4.25-1.91 4.25-4.25-1.91-4.25-4.25-4.25z" fill="#292D32"/>
<path d="m20.59 22.75c-0.41 0-0.75-0.34-0.75-0.75 0-3.45-3.5199-6.25-7.8399-6.25-4.32 0-7.84 2.8-7.84 6.25 0 0.41-0.34 0.75-0.75 0.75s-0.75-0.34-0.75-0.75c0-4.27 4.19-7.75 9.34-7.75 5.15 0 9.3399 3.48 9.3399 7.75 0 0.41-0.34 0.75-0.75 0.75z" fill="#292D32"/>
</svg>
